<svg width="85" height="38" viewBox="0 0 85 38" fill="none" xmlns="http://www.w3.org/2000/svg">
<path d="M53.9872 37.768C51.2992 37.768 49.1072 37.096 47.4112 35.752C45.7152 34.376 44.8672 32.264 44.8672 29.416C44.8672 27.688 45.2192 25.96 45.9232 24.232C46.6592 22.472 47.6992 20.936 49.0432 19.624C50.3872 18.312 51.9552 17.432 53.7472 16.984C52.7552 16.28 52.0192 15.432 51.5392 14.44C51.0592 13.416 50.8192 12.344 50.8192 11.224C50.8192 9.55999 51.2672 7.92799 52.1632 6.32799C53.0912 4.72799 54.3552 3.43199 55.9552 2.43999C57.5872 1.41599 59.3792 0.903992 61.3312 0.903992C63.3472 0.903992 64.9952 1.43199 66.2752 2.48799C67.5552 3.54399 68.1952 5.01599 68.1952 6.90399C68.1952 8.31199 67.8432 9.49599 67.1392 10.456C66.4352 11.416 65.6032 11.896 64.6432 11.896C63.7792 11.896 63.0272 11.464 62.3872 10.6C62.9632 10.408 63.4592 9.87999 63.8752 9.01599C64.2912 8.15199 64.4992 7.28799 64.4992 6.42399C64.4992 5.49599 64.2432 4.82399 63.7312 4.40799C63.2192 3.95999 62.5952 3.73599 61.8592 3.73599C60.9312 3.73599 60.0832 4.07199 59.3152 4.74399C58.5792 5.38399 58.0032 6.23199 57.5872 7.28799C57.1712 8.31199 56.9632 9.38399 56.9632 10.504C56.9632 12.04 57.3632 13.4 58.1632 14.584C58.9632 15.736 60.1792 16.52 61.8112 16.936C60.1792 17.288 58.7072 18.088 57.3952 19.336C56.0832 20.584 55.0592 22.04 54.3232 23.704C53.5872 25.336 53.2192 26.904 53.2192 28.408C53.2192 30.072 53.6512 31.304 54.5152 32.104C55.4112 32.904 56.6112 33.304 58.1152 33.304C59.8752 33.304 61.7472 32.808 63.7312 31.816C65.7152 30.824 67.3952 29.544 68.7712 27.976L66.3712 14.824H73.1392L74.6752 23.368C76.1152 21.832 77.2352 20.392 78.0352 19.048C78.8352 17.704 79.2352 16.6 79.2352 15.736C79.2352 15.448 79.2192 15.256 79.1872 15.16C78.7392 15.224 78.4672 15.256 78.3712 15.256C77.5712 15.256 76.9952 15.016 76.6432 14.536C76.2912 14.024 76.1152 13.368 76.1152 12.568C76.1152 11.864 76.3712 11.32 76.8832 10.936C77.3952 10.52 78.0352 10.312 78.8032 10.312C79.8272 10.312 80.6272 10.712 81.2032 11.512C81.7792 12.312 82.0672 13.336 82.0672 14.584C82.0672 16.12 81.5232 17.784 80.4352 19.576C79.3792 21.336 77.6352 23.48 75.2032 26.008L75.6352 28.408C75.6672 28.568 75.7632 29.08 75.9232 29.944C76.1152 30.776 76.4192 31.432 76.8352 31.912C77.2512 32.392 77.7952 32.632 78.4672 32.632C79.3952 32.632 80.2592 32.248 81.0592 31.48C81.8592 30.68 82.4352 29.656 82.7872 28.408H84.8032C83.6192 31.864 82.1152 34.216 80.2912 35.464C78.4992 36.68 76.7072 37.288 74.9152 37.288C73.4112 37.288 72.2592 36.808 71.4592 35.848C70.6592 34.888 69.9712 33.256 69.3952 30.952C67.6992 32.968 65.3792 34.616 62.4352 35.896C59.5232 37.144 56.7072 37.768 53.9872 37.768Z" fill="#FFBA00"/>
<path d="M37.2019 37.192C36.1459 37.192 35.2499 36.824 34.5139 36.088C33.7779 35.352 33.4099 34.456 33.4099 33.4C33.4099 32.344 33.7779 31.448 34.5139 30.712C35.2499 29.944 36.1459 29.56 37.2019 29.56C38.2579 29.56 39.1539 29.944 39.8899 30.712C40.6579 31.448 41.0419 32.344 41.0419 33.4C41.0419 34.456 40.6579 35.352 39.8899 36.088C39.1539 36.824 38.2579 37.192 37.2019 37.192Z" fill="#FFBA00"/>
<path d="M11.76 4.36C9.61599 5.256 7.95199 6.6 6.76799 8.392C5.61599 10.184 5.03999 12.344 5.03999 14.872C5.03999 16.056 5.15199 16.888 5.37599 17.368C5.59999 17.816 5.71199 18.072 5.71199 18.136C3.98399 18.136 2.68799 17.784 1.82399 17.08C0.991989 16.344 0.575989 15.144 0.575989 13.48C0.575989 11.432 1.40799 9.448 3.07199 7.528C4.76799 5.576 6.92799 4.008 9.55199 2.824C12.176 1.608 14.8 1 17.424 1C17.872 1 18.512 1.032 19.344 1.096L16.272 15.4H23.328L26.4 1.096H33.312L25.68 37H18.768L22.608 18.952H15.552L11.712 37H4.79999L11.76 4.36Z" fill="#FFBA00"/>
</svg>
