<svg width="56" height="37" viewBox="0 0 56 37" fill="none" xmlns="http://www.w3.org/2000/svg">
<path d="M49.0099 36.288C47.5379 36.288 46.3379 35.632 45.4099 34.32C44.5139 32.976 43.8259 30.848 43.3459 27.936L36.7219 36H33.2659L42.9619 25.056L42.1939 19.68C41.9379 18.112 41.6659 17.056 41.3779 16.512C41.1219 15.968 40.7859 15.696 40.3699 15.696C39.7299 15.696 39.0099 16.144 38.2099 17.04C37.4099 17.904 36.6259 19.232 35.8579 21.024C35.1219 22.784 34.4819 24.912 33.9379 27.408H31.9219C32.8499 23.056 34.2259 19.36 36.0499 16.32C37.9059 13.28 40.3059 11.76 43.2499 11.76C44.9459 11.76 46.1619 12.304 46.8979 13.392C47.6659 14.48 48.1779 15.84 48.4339 17.472L49.0099 20.976C50.3219 19.44 51.2979 18.144 51.9379 17.088C52.6099 16.032 52.9779 15.072 53.0419 14.208C52.5939 14.272 52.3219 14.304 52.2259 14.304C51.4259 14.304 50.8499 14.064 50.4979 13.584C50.1459 13.072 49.9699 12.416 49.9699 11.616C49.9699 10.816 50.2739 10.224 50.8819 9.84001C51.5219 9.45601 52.3059 9.26401 53.2339 9.26401C54.0659 9.26401 54.7219 9.71201 55.2019 10.608C55.6819 11.472 55.9219 12.48 55.9219 13.632C55.9219 15.008 55.4579 16.384 54.5299 17.76C53.6019 19.136 51.9219 21.152 49.4899 23.808L50.1139 27.456C50.3699 29.056 50.6899 30.16 51.0739 30.768C51.4579 31.344 52.0659 31.632 52.8979 31.632C53.5699 31.632 54.1619 31.536 54.6739 31.344C54.5459 32.976 53.9379 34.208 52.8499 35.04C51.7619 35.872 50.4819 36.288 49.0099 36.288Z" fill="#FFBA00"/>
<path d="M11.76 3.36C9.61599 4.256 7.95199 5.6 6.76799 7.392C5.61599 9.184 5.03999 11.344 5.03999 13.872C5.03999 15.056 5.15199 15.888 5.37599 16.368C5.59999 16.816 5.71199 17.072 5.71199 17.136C3.98399 17.136 2.68799 16.784 1.82399 16.08C0.991989 15.344 0.575989 14.144 0.575989 12.48C0.575989 10.432 1.40799 8.448 3.07199 6.528C4.76799 4.576 6.92799 3.008 9.55199 1.824C12.176 0.608002 14.8 0 17.424 0C17.872 0 18.512 0.0320015 19.344 0.0960026L16.272 14.4H23.328L26.4 0.0960026H33.312L25.68 36H18.768L22.608 17.952H15.552L11.712 36H4.79999L11.76 3.36Z" fill="#FFBA00"/>
</svg>
